<!DOCTYPE svg PUBLIC "-//W3C//DTD SVG 1.1//EN" "https://www.w3.org/Graphics/SVG/1.1/DTD/svg11.dtd"><svg xmlns="http://www.w3.org/2000/svg" id="sfn-svg" class="sfn-workflow-graph" width="286" height="630">
    
    
<g transform="translate(12.000003814697266,19.42340850830078)"><g class="nodes"><g class="node-container" transform="translate(144.99532890319824,18.484848022460938)"><g class="node anchor"><circle class="shape" x="-15.908257484436035" y="-8.484848022460938" r="25.908257484436035"/><text class="label"><tspan xml:space="preserve" text-anchor="middle" alignment-baseline="central">Start</tspan></text></g></g><g class="node-container" transform="translate(144.99532890319824,576.2121124267578)"><g class="node anchor"><circle class="shape" x="-12.173295021057129" y="-8.484848022460938" r="22.17329502105713"/><text class="label"><tspan xml:space="preserve" text-anchor="middle" alignment-baseline="central">End</tspan></text></g></g><g class="node-container" transform="translate(144.99532890319824,80.45454406738281)"><g class="node state Pass NotYetStarted"><rect class="shape" rx="5" ry="5" x="-55.14836502075195" y="-18.484848022460938" width="110.2967300415039" height="36.969696044921875"/><text class="label"><tspan xml:space="preserve" text-anchor="middle" alignment-baseline="central">Add starting y</tspan></text></g></g><g class="node-container" transform="translate(144.99532890319824,142.4242401123047)"><g class="node state Pass NotYetStarted"><rect class="shape" rx="5" ry="5" x="-70.95643615722656" y="-18.484848022460938" width="141.91287231445312" height="36.969696044921875"/><text class="label"><tspan xml:space="preserve" text-anchor="middle" alignment-baseline="central">Create Array Range</tspan></text></g></g><g class="node-container" transform="translate(88.07061576843262,204.39393615722656)"><g class="node state Pass NotYetStarted"><rect class="shape" rx="5" ry="5" x="-78.84942626953125" y="-18.484848022460938" width="157.6988525390625" height="36.969696044921875"/><text class="label"><tspan xml:space="preserve" text-anchor="middle" alignment-baseline="central">Create Array Partition</tspan></text></g></g><g class="node-container" transform="translate(88.07061576843262,266.36363220214844)"><g class="node state Pass NotYetStarted"><rect class="shape" rx="5" ry="5" x="-75.4122314453125" y="-18.484848022460938" width="150.824462890625" height="36.969696044921875"/><text class="label"><tspan xml:space="preserve" text-anchor="middle" alignment-baseline="central">Calculate Remainder</tspan></text></g></g><g class="node-container" transform="translate(88.07061576843262,328.3333282470703)"><g class="node state Choice NotYetStarted"><rect class="shape" rx="5" ry="5" x="-65.1362419128418" y="-18.484848022460938" width="130.2724838256836" height="36.969696044921875"/><text class="label"><tspan xml:space="preserve" text-anchor="middle" alignment-baseline="central">Check Remainder</tspan></text></g></g><g class="node-container" transform="translate(42.125946044921875,514.2424163818359)"><g class="node state Pass NotYetStarted"><rect class="shape" rx="5" ry="5" x="-42.125946044921875" y="-18.484848022460938" width="84.25189208984375" height="36.969696044921875"/><text class="label"><tspan xml:space="preserve" text-anchor="middle" alignment-baseline="central">Not Prime</tspan></text></g></g><g class="node-container" transform="translate(146.8111448287964,390.3030242919922)"><g class="node state Pass NotYetStarted"><rect class="shape" rx="5" ry="5" x="-56.889339447021484" y="-18.484848022460938" width="113.77867889404297" height="36.969696044921875"/><text class="label"><tspan xml:space="preserve" text-anchor="middle" alignment-baseline="central">Move to next y</tspan></text></g></g><g class="node-container" transform="translate(203.735857963562,452.27272033691406)"><g class="node state Choice NotYetStarted"><rect class="shape" rx="5" ry="5" x="-57.57533645629883" y="-18.484848022460938" width="115.15067291259766" height="36.969696044921875"/><text class="label"><tspan xml:space="preserve" text-anchor="middle" alignment-baseline="central">Should check y</tspan></text></g></g><g class="node-container" transform="translate(203.735857963562,514.2424163818359)"><g class="node state Pass NotYetStarted"><rect class="shape" rx="5" ry="5" x="-35.355112075805664" y="-18.484848022460938" width="70.71022415161133" height="36.969696044921875"/><text class="label"><tspan xml:space="preserve" text-anchor="middle" alignment-baseline="central">Is Prime</tspan></text></g></g></g><g class="edges"><g class="edge"><path class="path" marker-end="url(#arrowhead1865)" d="M144.99532890319824,98.93939208984375L144.99532890319824,101.02272542317708C144.99532890319824,103.10605875651041,144.99532890319824,107.27272542317708,144.99532890319824,111.43939208984375C144.99532890319824,115.60605875651041,144.99532890319824,119.77272542317706,144.99532890319824,121.85605875651041L144.99532890319824,123.93939208984375" style="fill: none;"/><defs><marker id="arrowhead1865" viewBox="0 0 10 10" refX="9" refY="5" markerUnits="strokeWidth" markerWidth="8" markerHeight="6" orient="auto"><path d="M 0 0 L 10 5 L 0 10 z"/></marker></defs></g><g class="edge"><path class="path" marker-end="url(#arrowhead1866)" d="M144.99532890319824,44.39310550689697L144.99532890319824,45.23920392990112C144.99532890319824,46.08530235290527,144.99532890319824,47.777499198913574,144.99532890319824,50.70693095525105C144.99532890319824,53.63636271158854,144.99532890319824,57.803029378255204,144.99532890319824,59.88636271158853L144.99532890319824,61.969696044921875" style="fill: none;"/><defs><marker id="arrowhead1866" viewBox="0 0 10 10" refX="9" refY="5" markerUnits="strokeWidth" markerWidth="8" markerHeight="6" orient="auto"><path d="M 0 0 L 10 5 L 0 10 z"/></marker></defs></g><g class="edge"><path class="path" marker-end="url(#arrowhead1867)" d="M111.03535368384084,160.90908813476562L107.20789736460614,162.99242146809894C103.38044104537143,165.07575480143228,95.72552840690201,169.24242146809894,91.89807208766733,173.40908813476562C88.07061576843262,177.57575480143228,88.07061576843262,181.74242146809894,88.07061576843262,183.82575480143228L88.07061576843262,185.90908813476562" style="fill: none;"/><defs><marker id="arrowhead1867" viewBox="0 0 10 10" refX="9" refY="5" markerUnits="strokeWidth" markerWidth="8" markerHeight="6" orient="auto"><path d="M 0 0 L 10 5 L 0 10 z"/></marker></defs></g><g class="edge"><path class="path" marker-end="url(#arrowhead1868)" d="M88.07061576843262,222.8787841796875L88.07061576843262,224.96211751302081C88.07061576843262,227.04545084635416,88.07061576843262,231.21211751302081,88.07061576843262,235.3787841796875C88.07061576843262,239.54545084635416,88.07061576843262,243.71211751302081,88.07061576843262,245.79545084635413L88.07061576843262,247.8787841796875" style="fill: none;"/><defs><marker id="arrowhead1868" viewBox="0 0 10 10" refX="9" refY="5" markerUnits="strokeWidth" markerWidth="8" markerHeight="6" orient="auto"><path d="M 0 0 L 10 5 L 0 10 z"/></marker></defs></g><g class="edge"><path class="path" marker-end="url(#arrowhead1869)" d="M88.07061576843262,284.8484802246094L88.07061576843262,286.9318135579427C88.07061576843262,289.015146891276,88.07061576843262,293.1818135579427,88.07061576843262,297.3484802246094C88.07061576843262,301.515146891276,88.07061576843262,305.6818135579427,88.07061576843262,307.76514689127606L88.07061576843262,309.8484802246094" style="fill: none;"/><defs><marker id="arrowhead1869" viewBox="0 0 10 10" refX="9" refY="5" markerUnits="strokeWidth" markerWidth="8" markerHeight="6" orient="auto"><path d="M 0 0 L 10 5 L 0 10 z"/></marker></defs></g><g class="edge"><path class="path" marker-end="url(#arrowhead1870)" d="M60.66108202905089,346.81817626953125L57.57189269836272,348.90150960286456C54.482703367674546,350.9848429361979,48.30432470629821,355.15150960286456,45.21513537561004,362.3989842732747C42.125946044921875,369.6464589436849,42.125946044921875,379.9747416178385,42.12594604492187,390.3030242919922C42.125946044921875,400.6313069661458,42.125946044921875,410.95958964029944,42.12594604492187,421.2878723144531C42.125946044921875,431.61615498860675,42.125946044921875,441.9444376627604,42.12594604492187,452.272720336914C42.125946044921875,462.60100301106763,42.125946044921875,472.9292856852213,42.12594604492187,480.1767603556315C42.125946044921875,487.42423502604163,42.125946044921875,491.59090169270826,42.12594604492187,493.67423502604163L42.125946044921875,495.757568359375" style="fill: none;"/><defs><marker id="arrowhead1870" viewBox="0 0 10 10" refX="9" refY="5" markerUnits="strokeWidth" markerWidth="8" markerHeight="6" orient="auto"><path d="M 0 0 L 10 5 L 0 10 z"/></marker></defs></g><g class="edge"><path class="path" marker-end="url(#arrowhead1871)" d="M123.11386502538137,346.81817626953125L127.06341165928387,348.90150960286456C131.0129582931864,350.9848429361979,138.91205156099136,355.15150960286456,142.86159819489387,359.31817626953125C146.8111448287964,363.4848429361979,146.8111448287964,367.65150960286456,146.81114482879636,369.73484293619794L146.8111448287964,371.81817626953125" style="fill: none;"/><defs><marker id="arrowhead1871" viewBox="0 0 10 10" refX="9" refY="5" markerUnits="strokeWidth" markerWidth="8" markerHeight="6" orient="auto"><path d="M 0 0 L 10 5 L 0 10 z"/></marker></defs></g><g class="edge"><path class="path" marker-end="url(#arrowhead1872)" d="M146.8111448287964,408.7878723144531L146.81114482879636,410.8712056477864C146.8111448287964,412.95453898111975,146.8111448287964,417.12120564778644,150.63860114803106,421.28787231445307C154.46605746726578,425.45453898111975,162.12097010573518,429.62120564778644,165.9484264249699,431.70453898111975L169.7758827442046,433.7878723144531" style="fill: none;"/><defs><marker id="arrowhead1872" viewBox="0 0 10 10" refX="9" refY="5" markerUnits="strokeWidth" markerWidth="8" markerHeight="6" orient="auto"><path d="M 0 0 L 10 5 L 0 10 z"/></marker></defs></g><g class="edge"><path class="path" marker-end="url(#arrowhead1873)" d="M231.14539170294375,433.7878723144531L234.2345810336319,431.70453898111975C237.32377036432007,429.62120564778644,243.50214902569638,425.45453898111975,246.59133835638454,418.2070643107096C249.68052768707273,410.95958964029944,249.68052768707273,400.6313069661458,249.6805276870727,390.3030242919922C249.68052768707273,379.9747416178385,249.68052768707273,369.6464589436849,249.6805276870727,359.31817626953125C249.68052768707273,348.98989359537757,249.68052768707273,338.66161092122394,249.6805276870727,328.3333282470703C249.68052768707273,318.00504557291663,249.68052768707273,307.676762898763,249.6805276870727,297.3484802246094C249.68052768707273,287.0201975504557,249.68052768707273,276.69191487630206,249.6805276870727,266.36363220214844C249.68052768707273,256.03534952799475,249.68052768707273,245.70706685384113,249.6805276870727,235.3787841796875C249.68052768707273,225.05050150553384,249.68052768707273,214.7222188313802,249.6805276870727,204.39393615722653C249.68052768707273,194.06565348307288,249.68052768707273,183.73737080891925,242.64179172248203,176.48989613850912C235.60305575789138,169.24242146809894,221.52558382871004,165.07575480143228,214.48684786411934,162.99242146809897L207.44811189952873,160.90908813476562" style="fill: none;"/><defs><marker id="arrowhead1873" viewBox="0 0 10 10" refX="9" refY="5" markerUnits="strokeWidth" markerWidth="8" markerHeight="6" orient="auto"><path d="M 0 0 L 10 5 L 0 10 z"/></marker></defs></g><g class="edge"><path class="path" marker-end="url(#arrowhead1874)" d="M203.735857963562,470.757568359375L203.73585796356195,472.8409016927083C203.73585796356198,474.92423502604163,203.73585796356198,479.0909016927083,203.73585796356195,483.257568359375C203.73585796356198,487.42423502604163,203.73585796356198,491.59090169270826,203.73585796356195,493.67423502604163L203.735857963562,495.757568359375" style="fill: none;"/><defs><marker id="arrowhead1874" viewBox="0 0 10 10" refX="9" refY="5" markerUnits="strokeWidth" markerWidth="8" markerHeight="6" orient="auto"><path d="M 0 0 L 10 5 L 0 10 z"/></marker></defs></g><g class="edge"><path class="path" marker-end="url(#arrowhead1875)" d="M42.125946044921875,532.7272644042969L42.12594604492187,534.8105977376301C42.125946044921875,536.8939310709635,42.125946044921875,541.0605977376301,55.73232548825389,547.2422505852198C69.33870493158592,553.4239034328095,96.55146381824997,561.6205424613222,110.157843261582,565.7188619755784L123.76422270491403,569.8171814898349" style="fill: none;"/><defs><marker id="arrowhead1875" viewBox="0 0 10 10" refX="9" refY="5" markerUnits="strokeWidth" markerWidth="8" markerHeight="6" orient="auto"><path d="M 0 0 L 10 5 L 0 10 z"/></marker></defs></g><g class="edge"><path class="path" marker-end="url(#arrowhead1876)" d="M203.735857963562,532.7272644042969L203.73585796356195,534.8105977376301C203.73585796356198,536.8939310709635,203.73585796356198,541.0605977376301,197.21444978616972,546.5838871711424C190.69304160877752,552.1071766046546,177.65022525399306,558.9870888050123,171.1288170766008,562.4270449051912L164.6074088992086,565.8670010053701" style="fill: none;"/><defs><marker id="arrowhead1876" viewBox="0 0 10 10" refX="9" refY="5" markerUnits="strokeWidth" markerWidth="8" markerHeight="6" orient="auto"><path d="M 0 0 L 10 5 L 0 10 z"/></marker></defs></g></g></g><style xmlns="http://www.w3.org/1999/xhtml">.node &gt; .shape {stroke: #555555;stroke-width: 0.6px;fill: #FFFFFF;} path {stroke: #555;background-color: #555;stroke-width: 1px;} .node.state.NotYetStarted &gt; .shape,.node.state.Container &gt; .shape {stroke-dasharray: 5 2;} .node.state.Failed &gt; .shape,rect.legend.Failed {fill: #DE322F;} .node.state.CaughtError &gt; .shape,rect.legend.CaughtError {fill: #FFA500;} .node.state.Succeeded &gt; .shape,rect.legend.Succeeded {fill: #2BD62E;} .node.state.InProgress &gt; .shape,rect.legend.InProgress {fill: #53c9ed;} .node.state.Cancelled &gt; .shape,rect.legend.Cancelled {fill: #dddddd;} .node.anchor &gt; .shape {fill: #FFDA75;} .node.state.hovered:not(.selected):not(.NotYetStarted) &gt; .shape,.node.selected &gt; .shape {stroke: #555555;stroke-width: 2px;} .node.state.Container.Failed &gt; .shape {fill: #EE9592;} .node.state.Container.CaughtError &gt; .shape {fill: #FFD27F;} .node.state.Container.Succeeded &gt; .shape {fill: #91EA9A;} .node.state.Container.InProgress &gt; .shape {fill :#A9E4F7;} .node.state.Container.Cancelled &gt; .shape {fill: #EEEEEE;} marker {fill: #555555;} .node.anchor,.node.state.NotYetStarted {cursor: default;} .node.state {cursor: pointer;} tspan .label {font-weight: normal;font-size: 12px;text-shadow: none;} </style></svg>