<!DOCTYPE svg PUBLIC "-//W3C//DTD SVG 1.1//EN" "https://www.w3.org/Graphics/SVG/1.1/DTD/svg11.dtd"><svg xmlns="http://www.w3.org/2000/svg" id="sfn-svg" class="sfn-workflow-graph" width="267" height="422">
    
    
<g transform="translate(14.5,19.42340850830078)"><g class="nodes"><g class="node-container" transform="translate(123.56533813476562,18.484848022460938)"><g class="node anchor"><circle class="shape" x="-15.908257484436035" y="-8.484848022460938" r="25.908257484436035"/><text class="label"><tspan xml:space="preserve" text-anchor="middle" alignment-baseline="central">Start</tspan></text></g></g><g class="node-container" transform="translate(123.56533813476562,368.3333206176758)"><g class="node anchor"><circle class="shape" x="-12.173295021057129" y="-8.484848022460938" r="22.17329502105713"/><text class="label"><tspan xml:space="preserve" text-anchor="middle" alignment-baseline="central">End</tspan></text></g></g><g class="node-container" transform="translate(123.56533813476562,80.45454406738281)"><g class="node state Pass NotYetStarted"><rect class="shape" rx="5" ry="5" x="-89.99931335449219" y="-18.484848022460938" width="179.99862670898438" height="36.969696044921875"/><text class="label"><tspan xml:space="preserve" text-anchor="middle" alignment-baseline="central">Generate candidate array</tspan></text></g></g><g class="node-container" transform="translate(123.56533813476562,193.40908432006836)"><g class="node state Map NotYetStarted Container" transform="translate(-116.06533813476562,-69.46969223022461)"><rect class="shape" rx="5" ry="5" x="-10" y="-10" width="230.13067626953125" height="136.93938446044922"/><rect class="shape" rx="5" ry="5" x="-5" y="-5" width="231.13067626953125" height="137.93938446044922"/><rect class="shape" rx="5" ry="5" x="0" y="0" width="232.13067626953125" height="138.93938446044922"/><g class="branches" transform="translate(20,20)"><g class="branch" transform="translate(0,0)"><g class="nodes"><g class="node-container" transform="translate(96.06533813476562,18.484848022460938)"><g class="node state Task NotYetStarted"><rect class="shape" rx="5" ry="5" x="-96.06533813476562" y="-18.484848022460938" width="192.13067626953125" height="36.969696044921875"/><text class="label"><tspan xml:space="preserve" text-anchor="middle" alignment-baseline="central">Call IsPrime with candidate</tspan></text></g></g><g class="node-container" transform="translate(96.06533813476562,80.45454406738281)"><g class="node state Pass NotYetStarted"><rect class="shape" rx="5" ry="5" x="-76.00721740722656" y="-18.484848022460938" width="152.01443481445312" height="36.969696044921875"/><text class="label"><tspan xml:space="preserve" text-anchor="middle" alignment-baseline="central">Parse IsPrime output</tspan></text></g></g></g><g class="edges"><g class="edge"><path class="path" marker-end="url(#arrowhead1853)" d="M96.06533813476562,36.969696044921875L96.0653381347656,39.053029378255204C96.06533813476561,41.13636271158854,96.06533813476561,45.303029378255204,96.0653381347656,49.469696044921875C96.06533813476561,53.63636271158854,96.06533813476561,57.803029378255204,96.0653381347656,59.88636271158853L96.06533813476562,61.969696044921875" style="fill: none;"/><defs><marker id="arrowhead1853" viewBox="0 0 10 10" refX="9" refY="5" markerUnits="strokeWidth" markerWidth="8" markerHeight="6" orient="auto"><path d="M 0 0 L 10 5 L 0 10 z"/></marker></defs></g></g></g></g><path class="path" marker-end="url(#arrowhead1854)" d="M116.06533813476562,0L116.06533813476562,1.6666666666666665C116.06533813476562,3.333333333333333,116.06533813476562,6.666666666666666,116.06533813476562,8.333333333333332C116.06533813476562,10,116.06533813476562,10,116.06533813476562,11.666666666666664C116.06533813476562,13.333333333333332,116.06533813476562,16.666666666666664,116.06533813476562,18.333333333333332L116.06533813476562,20" style="fill: none;"/></g></g><g class="node-container" transform="translate(123.56533813476562,306.3636245727539)"><g class="node state Pass NotYetStarted"><rect class="shape" rx="5" ry="5" x="-76.4852523803711" y="-18.484848022460938" width="152.9705047607422" height="36.969696044921875"/><text class="label"><tspan xml:space="preserve" text-anchor="middle" alignment-baseline="central">Filter prime numbers</tspan></text></g></g></g><g class="edges"><g class="edge"><path class="path" marker-end="url(#arrowhead1855)" d="M123.56533813476562,98.93939208984375L123.56533813476562,101.02272542317708C123.56533813476562,103.10605875651041,123.56533813476562,107.27272542317708,123.56533813476562,111.43939208984375C123.56533813476562,115.60605875651041,123.56533813476562,119.77272542317706,123.56533813476562,121.85605875651041L123.56533813476562,123.93939208984375" style="fill: none;"/><defs><marker id="arrowhead1855" viewBox="0 0 10 10" refX="9" refY="5" markerUnits="strokeWidth" markerWidth="8" markerHeight="6" orient="auto"><path d="M 0 0 L 10 5 L 0 10 z"/></marker></defs></g><g class="edge"><path class="path" marker-end="url(#arrowhead1856)" d="M123.56533813476562,44.39310550689697L123.56533813476562,45.23920392990112C123.56533813476562,46.08530235290527,123.56533813476562,47.777499198913574,123.56533813476562,50.70693095525105C123.56533813476562,53.63636271158854,123.56533813476562,57.803029378255204,123.56533813476562,59.88636271158853L123.56533813476562,61.969696044921875" style="fill: none;"/><defs><marker id="arrowhead1856" viewBox="0 0 10 10" refX="9" refY="5" markerUnits="strokeWidth" markerWidth="8" markerHeight="6" orient="auto"><path d="M 0 0 L 10 5 L 0 10 z"/></marker></defs></g><g class="edge"><path class="path" marker-end="url(#arrowhead1857)" d="M123.56533813476562,262.87877655029297L123.56533813476562,264.9621098836263C123.56533813476562,267.0454432169596,123.56533813476562,271.2121098836263,123.56533813476562,275.37877655029297C123.56533813476562,279.5454432169596,123.56533813476562,283.7121098836263,123.56533813476562,285.79544321695965L123.56533813476562,287.87877655029297" style="fill: none;"/><defs><marker id="arrowhead1857" viewBox="0 0 10 10" refX="9" refY="5" markerUnits="strokeWidth" markerWidth="8" markerHeight="6" orient="auto"><path d="M 0 0 L 10 5 L 0 10 z"/></marker></defs></g><g class="edge"><path class="path" marker-end="url(#arrowhead1858)" d="M123.56533813476562,324.84847259521484L123.56533813476562,326.93180592854816C123.56533813476562,329.0151392618815,123.56533813476562,333.18180592854816,123.56533813476562,336.73373142878216C123.56533813476562,340.2856569290161,123.56533813476562,343.2228412628174,123.56533813476562,344.691433429718L123.56533813476562,346.16002559661865" style="fill: none;"/><defs><marker id="arrowhead1858" viewBox="0 0 10 10" refX="9" refY="5" markerUnits="strokeWidth" markerWidth="8" markerHeight="6" orient="auto"><path d="M 0 0 L 10 5 L 0 10 z"/></marker></defs></g></g></g><style xmlns="http://www.w3.org/1999/xhtml">.node &gt; .shape {stroke: #555555;stroke-width: 0.6px;fill: #FFFFFF;} path {stroke: #555;background-color: #555;stroke-width: 1px;} .node.state.NotYetStarted &gt; .shape,.node.state.Container &gt; .shape {stroke-dasharray: 5 2;} .node.state.Failed &gt; .shape,rect.legend.Failed {fill: #DE322F;} .node.state.CaughtError &gt; .shape,rect.legend.CaughtError {fill: #FFA500;} .node.state.Succeeded &gt; .shape,rect.legend.Succeeded {fill: #2BD62E;} .node.state.InProgress &gt; .shape,rect.legend.InProgress {fill: #53c9ed;} .node.state.Cancelled &gt; .shape,rect.legend.Cancelled {fill: #dddddd;} .node.anchor &gt; .shape {fill: #FFDA75;} .node.state.hovered:not(.selected):not(.NotYetStarted) &gt; .shape,.node.selected &gt; .shape {stroke: #555555;stroke-width: 2px;} .node.state.Container.Failed &gt; .shape {fill: #EE9592;} .node.state.Container.CaughtError &gt; .shape {fill: #FFD27F;} .node.state.Container.Succeeded &gt; .shape {fill: #91EA9A;} .node.state.Container.InProgress &gt; .shape {fill :#A9E4F7;} .node.state.Container.Cancelled &gt; .shape {fill: #EEEEEE;} marker {fill: #555555;} .node.anchor,.node.state.NotYetStarted {cursor: default;} .node.state {cursor: pointer;} tspan .label {font-weight: normal;font-size: 12px;text-shadow: none;} </style></svg>